#N canvas 300 60 640 752 10;
#X obj 20 89 cnv 15 100 200 empty empty empty 20 12 0 14 -232576 -66577
0;
#X obj 29 144 tgl 36 0 empty empty empty 17 7 0 10 -4034 -1 -1 0 1
;
#X obj 26 233 random 100;
#X obj 34 207 s \$0-tick;
#X obj 34 255 s \$0-random;
#X obj 26 185 metro 100;
#X obj 26 122 r \$0-startStop;
#X obj 25 94 comment 0 18 helvetica ? 0 0 0 0 Start/Stop;
#X obj 121 89 cnv 15 120 60 empty empty empty 20 12 0 14 -261234 -66577
0;
#N canvas 53 131 1280 752 \$0-section-01 0;
#X obj 25 65 tgl 15 0 empty empty empty 17 7 0 10 -262144 -1 -1 0 1
;
#X obj 24 38 r \$0-section-01-onoff;
#X text 45 64 Section 1;
#X obj 219 630 s \$0-notes;
#X text 292 630 Send properly formatted note lists to [meep~];
#X msg -267 339 60 100 1000;
#X msg -154 349 65 500 500;
#X msg -42 353 67 100 1000;
#X msg 52 353 69 500 500;
#X msg 330 350 67 100 1000;
#X msg 240 350 60 100 500;
#X msg 147 349 65 100 1000;
#X obj -104 248 sel 0 1 2 3 4 5 6;
#X obj -103 115 tgl 15 0 empty empty empty 17 7 0 10 -262144 -1 -1
0 1;
#X obj -104 179 counter 8;
#X obj -103 138 metro 200;
#X obj -104 213 % 8;
#X obj 511 448 osc~;
#X obj 509 538 dac~ 1 2;
#X obj 443 540 s~ VU;
#X obj 650 457 line~;
#X obj 593 26 tgl 36 0 empty empty empty 17 7 0 10 -4034 -1 -1 0 1
;
#X obj 711 253 osc~;
#X obj 712 288 *~;
#X floatatom 782 271 5 0 0 0 - - -;
#X obj 501 396 *~;
#X obj 512 489 *~;
#X msg 651 429 \$1 100;
#X text 818 273 comment;
#X obj 501 321 r \$0-random_nums;
#X floatatom 516 356 5 0 0 0 - - -;
#X obj 288 144 mousestate;
#X obj 288 184 tgl 15 0 empty empty empty 17 7 0 10 -262144 -1 -1 0
1;
#X floatatom 350 191 5 0 0 0 - - -;
#X floatatom 442 197 5 0 0 0 - - -;
#X obj 411 249 / 100;
#X obj 654 382 knob 32 32 0 1 0 0 empty empty empty 0 -8 0 8 -262144
-1 -1 0 1;
#X obj 651 350 keyup;
#X text 690 347 Press any key to turn on. Press the up arrow to turn
off.;
#X text 360 143 MOVE THAT MOUSE!;
#X msg 287 111 poll;
#X connect 0 0 13 0;
#X connect 0 0 21 0;
#X connect 0 0 40 0;
#X connect 1 0 0 0;
#X connect 5 0 3 0;
#X connect 6 0 3 0;
#X connect 7 0 3 0;
#X connect 8 0 3 0;
#X connect 9 0 3 0;
#X connect 10 0 3 0;
#X connect 11 0 3 0;
#X connect 12 0 5 0;
#X connect 12 1 6 0;
#X connect 12 2 7 0;
#X connect 12 3 8 0;
#X connect 12 4 11 0;
#X connect 12 5 10 0;
#X connect 12 6 9 0;
#X connect 13 0 15 0;
#X connect 14 0 16 0;
#X connect 15 0 14 0;
#X connect 16 0 12 0;
#X connect 17 0 26 0;
#X connect 20 0 26 1;
#X connect 22 0 23 0;
#X connect 23 0 25 1;
#X connect 24 0 23 1;
#X connect 25 0 17 0;
#X connect 26 0 18 0;
#X connect 26 0 18 1;
#X connect 26 0 19 0;
#X connect 27 0 20 0;
#X connect 29 0 25 0;
#X connect 29 0 30 0;
#X connect 31 0 32 0;
#X connect 31 3 33 0;
#X connect 31 4 34 0;
#X connect 33 0 35 0;
#X connect 34 0 22 0;
#X connect 35 0 24 0;
#X connect 36 0 27 0;
#X connect 37 0 36 0;
#X connect 40 0 31 0;
#X coords 0 -1 1 1 100 24 2 20 60;
#X restore 129 120 pd \$0-section-01;
#X obj 130 95 comment 0 18 helvetica ? 0 0 0 0 Section 1;
#X obj 241 89 cnv 15 120 60 empty empty empty 20 12 0 14 -204800 -66577
0;
#X obj 250 95 comment 0 18 helvetica ? 0 0 0 0 Section 2;
#X obj 362 89 cnv 15 120 60 empty empty empty 20 12 0 14 -204786 -66577
0;
#X obj 371 95 comment 0 18 helvetica ? 0 0 0 0 Section 3;
#X obj 32 22 comment 0 18 helvetica ? 0 0 0 0 Richard Rizzo;
#X obj 120 150 cnv 15 120 139 empty empty empty 20 12 0 14 -260811
-66577 0;
#X obj 128 235 nbx 1 36 1 3 0 0 empty empty empty 0 -8 0 24 -262144
-1 -1 1 256;
#X obj 129 174 comment 0 18 helvetica ? 0 0 0 0 Logic;
#X obj 129 156 comment 0 18 helvetica ? 0 0 0 0 Control;
#X obj 241 150 cnv 15 240 139 empty empty empty 20 12 0 14 -175232
-66577 0;
#X obj 249 174 comment 0 18 helvetica ? 0 0 0 0 Output;
#X obj 249 156 comment 0 18 helvetica ? 0 0 0 0 Audio;
#X obj 291 267 dac~;
#X obj 249 203 r \$0-notes;
#X text 330 153 Make sure the DSP is on!;
#N canvas 324 587 568 371 transport 0;
#X obj 51 109 hsl 440 15 0 1 0 0 empty empty empty -2 -8 0 10 -262144
-1 -1 0 1;
#X obj 48 74 r \$0-transport;
#X text 468 108 End;
#X text 50 108 Start;
#X connect 1 0 0 0;
#X coords 0 -1 1 1 461 32 2 40 100;
#X restore 20 290 pd transport;
#N canvas 101 37 904 752 controlLogic 0;
#X obj 226 692 outlet;
#X obj 886 638 s \$0-section-01-onoff;
#X obj 896 660 s \$0-section-02-onoff;
#X obj 906 682 s \$0-section-03-onoff;
#X text 275 692 (Current section number: 1 \, 2 \, or 3);
#X text 858 612 Sends to the section toggles;
#X obj 642 690 s \$0-transport;
#X text 731 677 Send to transport;
#X text 731 691 (Value of 0 to 1);
#X obj 59 48 r \$0-random;
#X obj 351 -3 r \$0-tick;
#X obj 351 32 bng 15 250 50 0 empty empty empty 17 7 0 10 -262144 -1
-1;
#X obj 323 73 timer;
#X obj 323 34 bng 15 250 50 0 empty empty empty 17 7 0 10 -262144 -1
-1;
#X obj 237 300 spigot;
#X obj 346 309 spigot;
#X obj 451 309 spigot;
#X floatatom 498 253 5 0 0 0 - - -;
#X floatatom 396 250 5 0 0 0 - - -;
#X obj 584 253 s \$0-startStop;
#X floatatom 322 104 14 0 0 0 - - -;
#X floatatom 290 250 5 0 0 0 - - -;
#X obj 603 124 expr if(($f1 >=0) && ($f1<= 9999) \, 1 \, 0) \; if(($f1
>= 10000) && ($f1 <= 39999) \, 1 \, 0) \; if(($f1 >= 40000) && ($f1
<= 59999) \, 1 \, 0) \; if($f1 >= 60000 \, 0 \, 1) \;;
#X obj 73 423 s \$0-random_nums;
#X obj 238 422 s \$0-random_nums;
#X obj 412 425 s \$0-random_nums;
#X obj 187 592 r \$0-firstmessage;
#X obj 207 612 r \$0-secondmessage;
#X obj 221 634 r \$0-thirdmessage;
#X msg 36 442 1;
#X obj 38 421 bng 15 250 50 0 empty empty empty 17 7 0 10 -262144 -1
-1;
#X obj 68 444 s \$0-firstmessage;
#X msg 209 445 2;
#X obj 209 421 bng 15 250 50 0 empty empty empty 17 7 0 10 -262144
-1 -1;
#X obj 237 445 s \$0-secondmessage;
#X msg 386 446 3;
#X obj 390 424 bng 15 250 50 0 empty empty empty 17 7 0 10 -262144
-1 -1;
#X obj 419 448 s \$0-thirdmessage;
#X obj 875 122 / 60000;
#X text 306 18 RESET;
#X connect 9 0 14 0;
#X connect 9 0 15 0;
#X connect 9 0 16 0;
#X connect 10 0 11 0;
#X connect 11 0 12 1;
#X connect 12 0 20 0;
#X connect 13 0 12 0;
#X connect 14 0 23 0;
#X connect 14 0 30 0;
#X connect 15 0 24 0;
#X connect 15 0 33 0;
#X connect 16 0 25 0;
#X connect 16 0 36 0;
#X connect 17 0 16 1;
#X connect 17 0 3 0;
#X connect 18 0 2 0;
#X connect 18 0 15 1;
#X connect 20 0 22 0;
#X connect 20 0 38 0;
#X connect 21 0 1 0;
#X connect 21 0 14 1;
#X connect 22 0 21 0;
#X connect 22 1 18 0;
#X connect 22 2 17 0;
#X connect 22 3 19 0;
#X connect 26 0 0 0;
#X connect 27 0 0 0;
#X connect 28 0 0 0;
#X connect 29 0 31 0;
#X connect 30 0 29 0;
#X connect 32 0 34 0;
#X connect 33 0 32 0;
#X connect 35 0 37 0;
#X connect 36 0 35 0;
#X connect 38 0 6 0;
#X restore 128 213 pd controlLogic;
#N canvas 94 48 1280 752 \$0-section-02 0;
#X obj 24 65 tgl 15 0 empty empty empty 17 7 0 10 -262144 -1 -1 0 1
;
#X text 45 64 Section 2;
#X obj 24 38 r \$0-section-02-onoff;
#X obj 15 664 s \$0-notes;
#X text 88 664 Send properly formatted note lists to [meep~];
#X obj -20 161 tgl 15 0 empty empty empty 17 7 0 10 -262144 -1 -1 0
1;
#X obj -13 186 metro 200;
#X msg -496 345 92 100 100;
#X msg -415 347 88 100 60;
#X msg -321 347 77 100 50;
#X msg -226 343 80 100 50;
#X msg -121 336 90 100 100;
#X msg -14 329 77 100 50;
#X msg 74 325 78 100 50;
#X msg 137 347 82 100 100;
#X msg 225 358 92 100 50;
#X msg 306 367 93 100 50;
#X obj 65 284 sel 0 1 2 3 4 5 6 7 8 9 10 11 12 13 14 15 16;
#X msg 482 386 89 100 75;
#X msg 394 381 89 100 75;
#X msg 557 398 76 100 50;
#X msg 604 400 76 100 100;
#X obj -14 227 counter 16;
#X obj 11 256 % 16;
#X msg 691 420 80 100 50;
#X msg 666 408 89 100 100;
#X obj 828 427 osc~;
#X obj 826 517 dac~ 1 2;
#X obj 760 519 s~ VU;
#X obj 963 336 knob 32 32 0 0.5 0 0 empty empty empty 0 -8 0 8 -262144
-1 -1 0 1;
#X obj 967 436 line~;
#X obj 1028 232 osc~;
#X obj 1029 267 *~;
#X floatatom 1099 250 5 0 0 0 - - -;
#X obj 829 468 *~;
#X msg 968 408 \$1 100;
#X floatatom 909 375 5 0 0 0 - - -;
#X obj 818 375 *~;
#X text 1139 249 5 \, 30 \, 175;
#X text 1238 213 116 \, 105 \, 215;
#X msg 1242 180 30;
#X msg 1292 181 175;
#X text 1031 18 OBJ 1;
#X text 942 246 comment;
#X obj 831 297 r \$0-random_nums;
#X obj 683 191 mousestate;
#X floatatom 786 216 5 0 0 0 - - -;
#X floatatom 806 195 5 0 0 0 - - -;
#X msg 693 129 poll;
#X obj 663 93 bng 15 250 50 0 empty empty empty 17 7 0 10 -262144 -1
-1;
#X obj 1052 300 keyup;
#X text 802 156 MOVE AROUND THE MOUSE;
#X text 1045 339 Remember \, press the UP key to turn this off.;
#X connect 0 0 5 0;
#X connect 0 0 45 0;
#X connect 0 0 49 0;
#X connect 2 0 0 0;
#X connect 5 0 6 0;
#X connect 6 0 22 0;
#X connect 7 0 3 0;
#X connect 8 0 3 0;
#X connect 9 0 3 0;
#X connect 10 0 3 0;
#X connect 11 0 3 0;
#X connect 12 0 3 0;
#X connect 13 0 3 0;
#X connect 14 0 3 0;
#X connect 15 0 3 0;
#X connect 16 0 3 0;
#X connect 17 1 7 0;
#X connect 17 2 8 0;
#X connect 17 3 9 0;
#X connect 17 4 10 0;
#X connect 17 5 11 0;
#X connect 17 6 12 0;
#X connect 17 7 13 0;
#X connect 17 8 14 0;
#X connect 17 9 15 0;
#X connect 17 10 16 0;
#X connect 17 11 19 0;
#X connect 17 12 18 0;
#X connect 17 13 20 0;
#X connect 17 14 21 0;
#X connect 17 15 25 0;
#X connect 17 16 24 0;
#X connect 18 0 3 0;
#X connect 19 0 3 0;
#X connect 20 0 3 0;
#X connect 21 0 3 0;
#X connect 22 0 23 0;
#X connect 23 0 17 0;
#X connect 24 0 3 0;
#X connect 25 0 3 0;
#X connect 26 0 34 0;
#X connect 29 0 35 0;
#X connect 29 0 36 0;
#X connect 30 0 34 1;
#X connect 31 0 32 0;
#X connect 32 0 37 1;
#X connect 33 0 32 1;
#X connect 34 0 27 0;
#X connect 34 0 27 1;
#X connect 34 0 28 0;
#X connect 35 0 30 0;
#X connect 37 0 26 0;
#X connect 44 0 37 0;
#X connect 45 3 46 0;
#X connect 45 4 47 0;
#X connect 46 0 33 0;
#X connect 47 0 31 0;
#X connect 48 0 45 0;
#X connect 49 0 48 0;
#X connect 50 0 29 0;
#X coords 0 -1 1 1 100 24 2 20 60;
#X restore 249 121 pd \$0-section-02;
#N canvas 76 133 1280 752 \$0-section-03 0;
#X obj 24 65 tgl 15 0 empty empty empty 17 7 0 10 -262144 -1 -1 0 1
;
#X text 45 64 Section 3;
#X obj 24 38 r \$0-section-03-onoff;
#X obj 87 643 s \$0-notes;
#X text 160 643 Send properly formatted note lists to [meep~];
#X obj 9 154 tgl 15 0 empty empty empty 17 7 0 10 -262144 -1 -1 0 1
;
#X obj 15 220 counter 8;
#X obj 40 249 % 8;
#X msg -60 340 92 100 200;
#X msg 115 342 89 100 200;
#X msg 210 338 80 100 500;
#X msg 303 339 90 100 200;
#X obj 95 277 sel 0 1 2 3 4 5 6 7 8 9 10;
#X msg 493 338 92 100 200;
#X msg 593 341 89 100 100;
#X msg 689 341 92 100 200;
#X msg 393 339 92 100 400;
#X msg 793 343 90 100 300;
#X msg 29 332 92 100 500;
#X msg -169 337 89 100 100;
#X obj 16 179 metro 200;
#X obj 914 395 osc~;
#X obj 912 485 dac~ 1 2;
#X obj 1062 357 knob 32 32 0 0.5 0 0 empty empty empty 0 -8 0 8 -262144
-1 -1 0 1;
#X obj 1058 451 line~;
#X obj 1114 200 osc~;
#X obj 1115 235 *~;
#X floatatom 1185 218 5 0 0 0 - - -;
#X obj 915 436 *~;
#X msg 1059 423 \$1 100;
#X obj 904 343 *~;
#X obj 903 277 r \$0-random_nums;
#X obj 693 201 mousestate;
#X floatatom 796 226 5 0 0 0 - - -;
#X floatatom 816 205 5 0 0 0 - - -;
#X msg 703 139 poll;
#X obj 673 103 bng 15 250 50 0 empty empty empty 17 7 0 10 -262144
-1 -1;
#X text 812 166 MOVE AROUND THE MOUSE;
#X text 1060 324 UP key to turn off;
#X text 975 362 comment;
#X obj 1056 301 keyup;
#X connect 0 0 5 0;
#X connect 0 0 36 0;
#X connect 2 0 0 0;
#X connect 5 0 20 0;
#X connect 6 0 7 0;
#X connect 7 0 12 0;
#X connect 8 0 3 0;
#X connect 9 0 3 0;
#X connect 10 0 3 0;
#X connect 11 0 3 0;
#X connect 12 0 19 0;
#X connect 12 1 8 0;
#X connect 12 2 18 0;
#X connect 12 3 9 0;
#X connect 12 4 10 0;
#X connect 12 5 11 0;
#X connect 12 6 16 0;
#X connect 12 7 13 0;
#X connect 12 8 14 0;
#X connect 12 9 15 0;
#X connect 12 11 17 0;
#X connect 13 0 3 0;
#X connect 14 0 3 0;
#X connect 15 0 3 0;
#X connect 16 0 3 0;
#X connect 17 0 3 0;
#X connect 18 0 3 0;
#X connect 19 0 3 0;
#X connect 20 0 6 0;
#X connect 21 0 28 0;
#X connect 23 0 29 0;
#X connect 24 0 28 1;
#X connect 25 0 26 0;
#X connect 26 0 30 1;
#X connect 27 0 26 1;
#X connect 28 0 22 0;
#X connect 28 0 22 1;
#X connect 29 0 24 0;
#X connect 30 0 21 0;
#X connect 31 0 30 0;
#X connect 32 3 33 0;
#X connect 32 4 34 0;
#X connect 33 0 25 0;
#X connect 34 0 27 0;
#X connect 35 0 32 0;
#X connect 36 0 35 0;
#X connect 40 0 23 0;
#X coords 0 -1 1 1 100 24 2 20 60;
#X restore 373 121 pd \$0-section-03;
#X obj 249 222 meep~;
#X text 37 353 Press any key to activate the mouse and move it around.
Press the UP key to STOP making those sounds. There exists a reset
button within the control logic.;
#X text 219 64 SOUND MACHINE;
#X connect 1 0 5 0;
#X connect 2 0 4 0;
#X connect 5 0 2 0;
#X connect 5 0 3 0;
#X connect 6 0 1 0;
#X connect 24 0 30 0;
#X connect 27 0 17 0;
#X connect 30 0 23 0;
#X connect 30 1 23 1;
